<mxfile host="app.diagrams.net" modified="2023-06-01T07:44:06.748Z" agent="Mozilla/5.0 (Windows NT 10.0; Win64; x64; rv:109.0) Gecko/20100101 Firefox/113.0" etag="oo5XkYrxtqi07-WWdf1t" version="21.3.4" type="device">
  <diagram name="Seite-1" id="MsGE4RUpCcHemhJ3V-9u">
    <mxGraphModel dx="2074" dy="1134" grid="1" gridSize="10" guides="1" tooltips="1" connect="1" arrows="1" fold="1" page="1" pageScale="1" pageWidth="1654" pageHeight="2336" math="0" shadow="0">
      <root>
        <mxCell id="0" />
        <mxCell id="1" parent="0" />
        <mxCell id="LXsYwTm4LhWMBuhHV1Q5-9" style="edgeStyle=orthogonalEdgeStyle;rounded=0;orthogonalLoop=1;jettySize=auto;html=1;exitX=0.5;exitY=1;exitDx=0;exitDy=0;entryX=0.5;entryY=0;entryDx=0;entryDy=0;" parent="1" source="LXsYwTm4LhWMBuhHV1Q5-1" target="LXsYwTm4LhWMBuhHV1Q5-2" edge="1">
          <mxGeometry relative="1" as="geometry" />
        </mxCell>
        <mxCell id="LXsYwTm4LhWMBuhHV1Q5-1" value="&lt;div&gt;RESET&lt;/div&gt;&lt;div&gt;&lt;br&gt;&lt;/div&gt;&lt;div&gt;-&lt;br&gt;&lt;/div&gt;" style="ellipse;whiteSpace=wrap;html=1;" parent="1" vertex="1">
          <mxGeometry x="140" y="40" width="120" height="80" as="geometry" />
        </mxCell>
        <mxCell id="LXsYwTm4LhWMBuhHV1Q5-10" style="edgeStyle=orthogonalEdgeStyle;rounded=0;orthogonalLoop=1;jettySize=auto;html=1;exitX=0.5;exitY=1;exitDx=0;exitDy=0;entryX=0.5;entryY=0;entryDx=0;entryDy=0;" parent="1" source="LXsYwTm4LhWMBuhHV1Q5-2" target="LXsYwTm4LhWMBuhHV1Q5-3" edge="1">
          <mxGeometry relative="1" as="geometry" />
        </mxCell>
        <mxCell id="LXsYwTm4LhWMBuhHV1Q5-29" style="edgeStyle=orthogonalEdgeStyle;rounded=0;orthogonalLoop=1;jettySize=auto;html=1;exitX=0.317;exitY=0.063;exitDx=0;exitDy=0;exitPerimeter=0;entryX=0;entryY=0.5;entryDx=0;entryDy=0;" parent="1" source="LXsYwTm4LhWMBuhHV1Q5-2" target="LXsYwTm4LhWMBuhHV1Q5-2" edge="1">
          <mxGeometry relative="1" as="geometry">
            <mxPoint x="110" y="310" as="targetPoint" />
            <mxPoint x="550" y="50" as="sourcePoint" />
            <Array as="points">
              <mxPoint x="178" y="180" />
              <mxPoint x="120" y="180" />
              <mxPoint x="120" y="240" />
            </Array>
          </mxGeometry>
        </mxCell>
        <mxCell id="LXsYwTm4LhWMBuhHV1Q5-2" value="&lt;div&gt;InstructionFetch1&lt;/div&gt;&lt;div&gt;&lt;br&gt;&lt;/div&gt;&lt;div&gt;-&lt;br&gt;&lt;/div&gt;" style="ellipse;whiteSpace=wrap;html=1;" parent="1" vertex="1">
          <mxGeometry x="140" y="200" width="120" height="80" as="geometry" />
        </mxCell>
        <mxCell id="LXsYwTm4LhWMBuhHV1Q5-11" style="edgeStyle=orthogonalEdgeStyle;rounded=0;orthogonalLoop=1;jettySize=auto;html=1;exitX=0.5;exitY=1;exitDx=0;exitDy=0;entryX=0.5;entryY=0;entryDx=0;entryDy=0;" parent="1" source="LXsYwTm4LhWMBuhHV1Q5-3" target="LXsYwTm4LhWMBuhHV1Q5-4" edge="1">
          <mxGeometry relative="1" as="geometry" />
        </mxCell>
        <mxCell id="LXsYwTm4LhWMBuhHV1Q5-3" value="&lt;div&gt;InstructionFetch2&lt;/div&gt;&lt;div&gt;&lt;br&gt;&lt;/div&gt;&lt;div&gt;c_adr_pc_not_reg &amp;lt;= 1&lt;/div&gt;&lt;div&gt;c_mem_rd &amp;lt;= 1&lt;/div&gt;&lt;div&gt;c_ir_load &amp;lt;= 1&lt;br&gt;&lt;/div&gt;" style="ellipse;whiteSpace=wrap;html=1;" parent="1" vertex="1">
          <mxGeometry x="88" y="390" width="224" height="110" as="geometry" />
        </mxCell>
        <mxCell id="LXsYwTm4LhWMBuhHV1Q5-4" value="&lt;div&gt;InstructionDecode&lt;/div&gt;&lt;div&gt;&lt;br&gt;&lt;/div&gt;&lt;div&gt;c_pc_inc &amp;lt;= 1&lt;br&gt;&lt;/div&gt;" style="ellipse;whiteSpace=wrap;html=1;" parent="1" vertex="1">
          <mxGeometry x="128" y="584.5" width="144" height="100" as="geometry" />
        </mxCell>
        <mxCell id="LXsYwTm4LhWMBuhHV1Q5-5" value="&lt;div&gt;HALT&lt;/div&gt;&lt;div&gt;&lt;br&gt;&lt;/div&gt;-" style="ellipse;whiteSpace=wrap;html=1;" parent="1" vertex="1">
          <mxGeometry x="360" y="2060" width="120" height="80" as="geometry" />
        </mxCell>
        <mxCell id="LXsYwTm4LhWMBuhHV1Q5-6" value="&lt;div&gt;LDIL&lt;/div&gt;&lt;div&gt;&lt;br&gt;&lt;/div&gt;&lt;div&gt;c_regfile_load_lo &amp;lt;= 1&lt;/div&gt;&lt;div&gt;c_reg_ldi &amp;lt;= 1&lt;br&gt;&lt;/div&gt;" style="ellipse;whiteSpace=wrap;html=1;" parent="1" vertex="1">
          <mxGeometry x="480" y="868" width="160" height="80" as="geometry" />
        </mxCell>
        <mxCell id="LXsYwTm4LhWMBuhHV1Q5-7" value="&lt;div&gt;LDIH&lt;/div&gt;&lt;div&gt;&lt;br&gt;&lt;/div&gt;&lt;div&gt;c_regfile_load_hi &amp;lt;= 1&lt;/div&gt;&lt;div&gt;c_reg_ldi &amp;lt;= 1&lt;br&gt;&lt;/div&gt;" style="ellipse;whiteSpace=wrap;html=1;" parent="1" vertex="1">
          <mxGeometry x="480" y="988" width="170" height="80" as="geometry" />
        </mxCell>
        <mxCell id="LXsYwTm4LhWMBuhHV1Q5-8" value="&lt;div&gt;ALU&lt;/div&gt;&lt;div&gt;&lt;br&gt;&lt;/div&gt;&lt;div&gt;c_regfile_load_lo &amp;lt;= 1&lt;/div&gt;&lt;div&gt;c_regfile_load_hi &amp;lt;= 1&lt;br&gt;&lt;/div&gt;" style="ellipse;whiteSpace=wrap;html=1;" parent="1" vertex="1">
          <mxGeometry x="480" y="680" width="170" height="90" as="geometry" />
        </mxCell>
        <mxCell id="LXsYwTm4LhWMBuhHV1Q5-30" style="edgeStyle=orthogonalEdgeStyle;rounded=0;orthogonalLoop=1;jettySize=auto;html=1;entryX=0;entryY=0.5;entryDx=0;entryDy=0;exitX=0.188;exitY=0.091;exitDx=0;exitDy=0;exitPerimeter=0;" parent="1" source="LXsYwTm4LhWMBuhHV1Q5-3" target="LXsYwTm4LhWMBuhHV1Q5-3" edge="1">
          <mxGeometry relative="1" as="geometry">
            <Array as="points">
              <mxPoint x="130" y="370" />
              <mxPoint x="50" y="370" />
              <mxPoint x="50" y="445" />
            </Array>
          </mxGeometry>
        </mxCell>
        <mxCell id="LXsYwTm4LhWMBuhHV1Q5-31" style="edgeStyle=orthogonalEdgeStyle;rounded=0;orthogonalLoop=1;jettySize=auto;html=1;entryX=1;entryY=0.5;entryDx=0;entryDy=0;" parent="1" source="LXsYwTm4LhWMBuhHV1Q5-5" target="LXsYwTm4LhWMBuhHV1Q5-5" edge="1">
          <mxGeometry relative="1" as="geometry">
            <Array as="points">
              <mxPoint x="420" y="2160" />
              <mxPoint x="500" y="2160" />
              <mxPoint x="500" y="2100" />
            </Array>
          </mxGeometry>
        </mxCell>
        <mxCell id="LXsYwTm4LhWMBuhHV1Q5-34" value="ready = 0" style="text;html=1;strokeColor=none;fillColor=none;align=center;verticalAlign=middle;whiteSpace=wrap;rounded=0;" parent="1" vertex="1">
          <mxGeometry x="200" y="310" width="60" height="30" as="geometry" />
        </mxCell>
        <mxCell id="LXsYwTm4LhWMBuhHV1Q5-35" value="ready = 0" style="text;html=1;strokeColor=none;fillColor=none;align=center;verticalAlign=middle;whiteSpace=wrap;rounded=0;" parent="1" vertex="1">
          <mxGeometry x="630" y="1250" width="60" height="30" as="geometry" />
        </mxCell>
        <mxCell id="LXsYwTm4LhWMBuhHV1Q5-36" value="SONST" style="text;html=1;strokeColor=none;fillColor=none;align=center;verticalAlign=middle;whiteSpace=wrap;rounded=0;" parent="1" vertex="1">
          <mxGeometry x="238" y="2070" width="74" height="30" as="geometry" />
        </mxCell>
        <mxCell id="LXsYwTm4LhWMBuhHV1Q5-38" value="IR(15:14) = &quot;00&quot;" style="text;html=1;strokeColor=none;fillColor=none;align=center;verticalAlign=middle;whiteSpace=wrap;rounded=0;" parent="1" vertex="1">
          <mxGeometry x="247" y="700" width="100" height="30" as="geometry" />
        </mxCell>
        <mxCell id="LXsYwTm4LhWMBuhHV1Q5-39" value="&lt;div align=&quot;left&quot;&gt;IR(12:11) = &quot;00&quot;&lt;/div&gt;" style="text;html=1;strokeColor=none;fillColor=none;align=left;verticalAlign=middle;whiteSpace=wrap;rounded=0;" parent="1" vertex="1">
          <mxGeometry x="380" y="880" width="88" height="20" as="geometry" />
        </mxCell>
        <mxCell id="LXsYwTm4LhWMBuhHV1Q5-40" value="&lt;div align=&quot;left&quot;&gt;IR(12:11) = &quot;01&quot;&lt;/div&gt;" style="text;html=1;strokeColor=none;fillColor=none;align=left;verticalAlign=middle;whiteSpace=wrap;rounded=0;" parent="1" vertex="1">
          <mxGeometry x="366" y="998" width="90" height="20" as="geometry" />
        </mxCell>
        <mxCell id="LXsYwTm4LhWMBuhHV1Q5-41" value="ready = 1" style="text;html=1;strokeColor=none;fillColor=none;align=center;verticalAlign=middle;whiteSpace=wrap;rounded=0;" parent="1" vertex="1">
          <mxGeometry x="60" y="190" width="60" height="30" as="geometry" />
        </mxCell>
        <mxCell id="5BfrKKxsxFt3a2AqlH3C-16" style="edgeStyle=orthogonalEdgeStyle;rounded=0;orthogonalLoop=1;jettySize=auto;html=1;exitX=1;exitY=0.5;exitDx=0;exitDy=0;entryX=0;entryY=0.5;entryDx=0;entryDy=0;" parent="1" source="i8OTpNdrbQR1cZ3azr5K-1" target="i8OTpNdrbQR1cZ3azr5K-2" edge="1">
          <mxGeometry relative="1" as="geometry" />
        </mxCell>
        <mxCell id="i8OTpNdrbQR1cZ3azr5K-1" value="&lt;div&gt;LD1&lt;/div&gt;&lt;div&gt;&lt;br&gt;&lt;/div&gt;&lt;div&gt;c_mem_rd &amp;lt;= 1&lt;br&gt;&lt;/div&gt;&lt;div&gt;c_reg_ldmem &amp;lt;= 1&lt;/div&gt;" style="ellipse;whiteSpace=wrap;html=1;" parent="1" vertex="1">
          <mxGeometry x="920" y="1140" width="160" height="85.5" as="geometry" />
        </mxCell>
        <mxCell id="i8OTpNdrbQR1cZ3azr5K-2" value="&lt;div&gt;LD2&lt;/div&gt;&lt;div&gt;&lt;br&gt;&lt;/div&gt;&lt;div&gt;c_mem_rd &amp;lt;= 1&lt;/div&gt;&lt;div&gt;c_reg_ldmem &amp;lt;= 1&lt;/div&gt;&lt;div&gt;c_regfile_load_lo &amp;lt;= 1&lt;/div&gt;&lt;div&gt;c_regfile_load_hi &amp;lt;= 1&lt;br&gt;&lt;/div&gt;" style="ellipse;whiteSpace=wrap;html=1;" parent="1" vertex="1">
          <mxGeometry x="1195" y="1121" width="200" height="122" as="geometry" />
        </mxCell>
        <mxCell id="i8OTpNdrbQR1cZ3azr5K-17" value="&lt;div align=&quot;left&quot;&gt;IR(12:11) = &quot;11&quot;&lt;/div&gt;" style="text;html=1;strokeColor=none;fillColor=none;align=left;verticalAlign=middle;whiteSpace=wrap;rounded=0;" parent="1" vertex="1">
          <mxGeometry x="778" y="1378" width="98" height="20" as="geometry" />
        </mxCell>
        <mxCell id="i8OTpNdrbQR1cZ3azr5K-22" value="ready = 1" style="text;html=1;strokeColor=none;fillColor=none;align=center;verticalAlign=middle;whiteSpace=wrap;rounded=0;" parent="1" vertex="1">
          <mxGeometry x="200" y="520" width="60" height="30" as="geometry" />
        </mxCell>
        <mxCell id="5BfrKKxsxFt3a2AqlH3C-5" value="" style="endArrow=none;html=1;rounded=0;entryX=0.5;entryY=1;entryDx=0;entryDy=0;" parent="1" target="LXsYwTm4LhWMBuhHV1Q5-4" edge="1">
          <mxGeometry width="50" height="50" relative="1" as="geometry">
            <mxPoint x="200" y="2100" as="sourcePoint" />
            <mxPoint x="208" y="720" as="targetPoint" />
          </mxGeometry>
        </mxCell>
        <mxCell id="5BfrKKxsxFt3a2AqlH3C-10" value="" style="endArrow=none;html=1;rounded=0;entryX=0;entryY=0.5;entryDx=0;entryDy=0;" parent="1" target="LXsYwTm4LhWMBuhHV1Q5-5" edge="1">
          <mxGeometry width="50" height="50" relative="1" as="geometry">
            <mxPoint x="200" y="2100" as="sourcePoint" />
            <mxPoint x="640" y="820" as="targetPoint" />
          </mxGeometry>
        </mxCell>
        <mxCell id="5BfrKKxsxFt3a2AqlH3C-11" value="" style="endArrow=classic;html=1;rounded=0;entryX=1;entryY=0.5;entryDx=0;entryDy=0;" parent="1" target="LXsYwTm4LhWMBuhHV1Q5-2" edge="1">
          <mxGeometry width="50" height="50" relative="1" as="geometry">
            <mxPoint x="1560" y="240" as="sourcePoint" />
            <mxPoint x="640" y="510" as="targetPoint" />
          </mxGeometry>
        </mxCell>
        <mxCell id="5BfrKKxsxFt3a2AqlH3C-12" value="" style="endArrow=none;html=1;rounded=0;exitX=1;exitY=0.5;exitDx=0;exitDy=0;" parent="1" source="LXsYwTm4LhWMBuhHV1Q5-8" edge="1">
          <mxGeometry width="50" height="50" relative="1" as="geometry">
            <mxPoint x="590" y="600" as="sourcePoint" />
            <mxPoint x="1560" y="725" as="targetPoint" />
          </mxGeometry>
        </mxCell>
        <mxCell id="5BfrKKxsxFt3a2AqlH3C-13" value="" style="endArrow=none;html=1;rounded=0;exitX=1;exitY=0.5;exitDx=0;exitDy=0;" parent="1" source="LXsYwTm4LhWMBuhHV1Q5-6" edge="1">
          <mxGeometry width="50" height="50" relative="1" as="geometry">
            <mxPoint x="590" y="828" as="sourcePoint" />
            <mxPoint x="1560" y="908" as="targetPoint" />
          </mxGeometry>
        </mxCell>
        <mxCell id="5BfrKKxsxFt3a2AqlH3C-14" value="" style="endArrow=none;html=1;rounded=0;exitX=1;exitY=0.5;exitDx=0;exitDy=0;" parent="1" source="LXsYwTm4LhWMBuhHV1Q5-7" edge="1">
          <mxGeometry width="50" height="50" relative="1" as="geometry">
            <mxPoint x="590" y="1028" as="sourcePoint" />
            <mxPoint x="1560" y="1028" as="targetPoint" />
          </mxGeometry>
        </mxCell>
        <mxCell id="5BfrKKxsxFt3a2AqlH3C-17" value="" style="endArrow=none;html=1;rounded=0;entryX=1;entryY=0.5;entryDx=0;entryDy=0;" parent="1" target="i8OTpNdrbQR1cZ3azr5K-2" edge="1">
          <mxGeometry width="50" height="50" relative="1" as="geometry">
            <mxPoint x="1560" y="1182" as="sourcePoint" />
            <mxPoint x="950" y="1045.5" as="targetPoint" />
          </mxGeometry>
        </mxCell>
        <mxCell id="5BfrKKxsxFt3a2AqlH3C-18" value="&lt;div align=&quot;left&quot;&gt;IR(12:11) = &quot;10&quot;&lt;/div&gt;" style="text;html=1;strokeColor=none;fillColor=none;align=left;verticalAlign=middle;whiteSpace=wrap;rounded=0;" parent="1" vertex="1">
          <mxGeometry x="778" y="1148" width="94" height="20" as="geometry" />
        </mxCell>
        <mxCell id="5BfrKKxsxFt3a2AqlH3C-19" value="ready = 1" style="text;html=1;strokeColor=none;fillColor=none;align=center;verticalAlign=middle;whiteSpace=wrap;rounded=0;" parent="1" vertex="1">
          <mxGeometry x="1110" y="1190" width="60" height="30" as="geometry" />
        </mxCell>
        <mxCell id="5BfrKKxsxFt3a2AqlH3C-20" style="edgeStyle=orthogonalEdgeStyle;rounded=0;orthogonalLoop=1;jettySize=auto;html=1;exitX=0;exitY=1;exitDx=0;exitDy=0;entryX=1;entryY=1;entryDx=0;entryDy=0;" parent="1" source="i8OTpNdrbQR1cZ3azr5K-1" target="i8OTpNdrbQR1cZ3azr5K-1" edge="1">
          <mxGeometry relative="1" as="geometry">
            <Array as="points">
              <mxPoint x="946" y="1245.5" />
              <mxPoint x="1074" y="1245.5" />
            </Array>
          </mxGeometry>
        </mxCell>
        <mxCell id="5BfrKKxsxFt3a2AqlH3C-57" style="edgeStyle=orthogonalEdgeStyle;rounded=0;orthogonalLoop=1;jettySize=auto;html=1;exitX=1;exitY=0.5;exitDx=0;exitDy=0;entryX=0;entryY=0.5;entryDx=0;entryDy=0;" parent="1" source="5BfrKKxsxFt3a2AqlH3C-21" target="5BfrKKxsxFt3a2AqlH3C-55" edge="1">
          <mxGeometry relative="1" as="geometry" />
        </mxCell>
        <mxCell id="5BfrKKxsxFt3a2AqlH3C-21" value="&lt;div&gt;WAIT&lt;/div&gt;&lt;div&gt;&lt;br&gt;&lt;/div&gt;&lt;div&gt;-&lt;br&gt;&lt;/div&gt;" style="ellipse;whiteSpace=wrap;html=1;" parent="1" vertex="1">
          <mxGeometry x="480" y="1238" width="120" height="80" as="geometry" />
        </mxCell>
        <mxCell id="5BfrKKxsxFt3a2AqlH3C-24" value="ready = 1" style="text;html=1;strokeColor=none;fillColor=none;align=center;verticalAlign=middle;whiteSpace=wrap;rounded=0;" parent="1" vertex="1">
          <mxGeometry x="510" y="1338" width="60" height="30" as="geometry" />
        </mxCell>
        <mxCell id="5BfrKKxsxFt3a2AqlH3C-25" value="ready = 0" style="text;html=1;strokeColor=none;fillColor=none;align=center;verticalAlign=middle;whiteSpace=wrap;rounded=0;" parent="1" vertex="1">
          <mxGeometry x="975" y="1438" width="60" height="30" as="geometry" />
        </mxCell>
        <mxCell id="5BfrKKxsxFt3a2AqlH3C-28" value="&lt;div&gt;ST&lt;/div&gt;&lt;div&gt;&lt;br&gt;&lt;/div&gt;&lt;div&gt;c_mem_wr &amp;lt;= 1&lt;/div&gt;" style="ellipse;whiteSpace=wrap;html=1;" parent="1" vertex="1">
          <mxGeometry x="920" y="1328" width="160" height="82" as="geometry" />
        </mxCell>
        <mxCell id="5BfrKKxsxFt3a2AqlH3C-32" value="" style="endArrow=none;html=1;rounded=0;entryX=1;entryY=0.5;entryDx=0;entryDy=0;" parent="1" target="5BfrKKxsxFt3a2AqlH3C-28" edge="1">
          <mxGeometry width="50" height="50" relative="1" as="geometry">
            <mxPoint x="1560" y="1370" as="sourcePoint" />
            <mxPoint x="1075" y="1113" as="targetPoint" />
          </mxGeometry>
        </mxCell>
        <mxCell id="5BfrKKxsxFt3a2AqlH3C-33" value="ready = 1" style="text;html=1;strokeColor=none;fillColor=none;align=center;verticalAlign=middle;whiteSpace=wrap;rounded=0;" parent="1" vertex="1">
          <mxGeometry x="1265" y="1368" width="60" height="30" as="geometry" />
        </mxCell>
        <mxCell id="5BfrKKxsxFt3a2AqlH3C-36" style="edgeStyle=orthogonalEdgeStyle;rounded=0;orthogonalLoop=1;jettySize=auto;html=1;exitX=0;exitY=1;exitDx=0;exitDy=0;entryX=1;entryY=1;entryDx=0;entryDy=0;" parent="1" source="5BfrKKxsxFt3a2AqlH3C-28" target="5BfrKKxsxFt3a2AqlH3C-28" edge="1">
          <mxGeometry relative="1" as="geometry">
            <Array as="points">
              <mxPoint x="960" y="1433" />
              <mxPoint x="1080" y="1433" />
            </Array>
          </mxGeometry>
        </mxCell>
        <mxCell id="5BfrKKxsxFt3a2AqlH3C-37" value="ready = 0" style="text;html=1;strokeColor=none;fillColor=none;align=center;verticalAlign=middle;whiteSpace=wrap;rounded=0;" parent="1" vertex="1">
          <mxGeometry x="975" y="1243" width="60" height="30" as="geometry" />
        </mxCell>
        <mxCell id="5BfrKKxsxFt3a2AqlH3C-41" value="IR(15:14) = &quot;01&quot;" style="text;whiteSpace=wrap;html=1;" parent="1" vertex="1">
          <mxGeometry x="210" y="880" width="90" height="30" as="geometry" />
        </mxCell>
        <mxCell id="5BfrKKxsxFt3a2AqlH3C-46" value="" style="rhombus;whiteSpace=wrap;html=1;" parent="1" vertex="1">
          <mxGeometry x="312" y="883" width="54" height="50" as="geometry" />
        </mxCell>
        <mxCell id="5BfrKKxsxFt3a2AqlH3C-47" value="" style="endArrow=classic;html=1;rounded=0;entryX=0;entryY=0.5;entryDx=0;entryDy=0;" parent="1" target="LXsYwTm4LhWMBuhHV1Q5-8" edge="1">
          <mxGeometry width="50" height="50" relative="1" as="geometry">
            <mxPoint x="200" y="725" as="sourcePoint" />
            <mxPoint x="940" y="1060" as="targetPoint" />
          </mxGeometry>
        </mxCell>
        <mxCell id="5BfrKKxsxFt3a2AqlH3C-48" value="" style="endArrow=classic;html=1;rounded=0;entryX=0;entryY=0.5;entryDx=0;entryDy=0;" parent="1" target="5BfrKKxsxFt3a2AqlH3C-46" edge="1">
          <mxGeometry width="50" height="50" relative="1" as="geometry">
            <mxPoint x="200" y="908" as="sourcePoint" />
            <mxPoint x="940" y="1168" as="targetPoint" />
          </mxGeometry>
        </mxCell>
        <mxCell id="5BfrKKxsxFt3a2AqlH3C-49" value="" style="endArrow=classic;html=1;rounded=0;entryX=0;entryY=0.5;entryDx=0;entryDy=0;exitX=1;exitY=0.5;exitDx=0;exitDy=0;" parent="1" source="5BfrKKxsxFt3a2AqlH3C-46" target="LXsYwTm4LhWMBuhHV1Q5-6" edge="1">
          <mxGeometry width="50" height="50" relative="1" as="geometry">
            <mxPoint x="890" y="1218" as="sourcePoint" />
            <mxPoint x="940" y="1168" as="targetPoint" />
          </mxGeometry>
        </mxCell>
        <mxCell id="5BfrKKxsxFt3a2AqlH3C-50" value="" style="endArrow=none;html=1;rounded=0;entryX=0.5;entryY=1;entryDx=0;entryDy=0;" parent="1" target="5BfrKKxsxFt3a2AqlH3C-46" edge="1">
          <mxGeometry width="50" height="50" relative="1" as="geometry">
            <mxPoint x="339" y="1278" as="sourcePoint" />
            <mxPoint x="940" y="1168" as="targetPoint" />
          </mxGeometry>
        </mxCell>
        <mxCell id="5BfrKKxsxFt3a2AqlH3C-51" value="" style="endArrow=classic;html=1;rounded=0;entryX=0;entryY=0.5;entryDx=0;entryDy=0;" parent="1" target="LXsYwTm4LhWMBuhHV1Q5-7" edge="1">
          <mxGeometry width="50" height="50" relative="1" as="geometry">
            <mxPoint x="340" y="1028" as="sourcePoint" />
            <mxPoint x="940" y="1168" as="targetPoint" />
          </mxGeometry>
        </mxCell>
        <mxCell id="5BfrKKxsxFt3a2AqlH3C-52" value="" style="endArrow=classic;html=1;rounded=0;entryX=0;entryY=0.5;entryDx=0;entryDy=0;" parent="1" target="5BfrKKxsxFt3a2AqlH3C-21" edge="1">
          <mxGeometry width="50" height="50" relative="1" as="geometry">
            <mxPoint x="340" y="1278" as="sourcePoint" />
            <mxPoint x="940" y="1168" as="targetPoint" />
          </mxGeometry>
        </mxCell>
        <mxCell id="5BfrKKxsxFt3a2AqlH3C-53" value="&lt;div align=&quot;left&quot;&gt;IR(12:11) = &quot;10&quot;&lt;/div&gt;&lt;div align=&quot;left&quot;&gt;OR&lt;/div&gt;&lt;div align=&quot;left&quot;&gt;IR(12:11) = &quot;11&quot;&lt;br&gt;&lt;/div&gt;" style="text;html=1;strokeColor=none;fillColor=none;align=left;verticalAlign=middle;whiteSpace=wrap;rounded=0;" parent="1" vertex="1">
          <mxGeometry x="360" y="1220" width="93" height="45" as="geometry" />
        </mxCell>
        <mxCell id="5BfrKKxsxFt3a2AqlH3C-59" style="edgeStyle=orthogonalEdgeStyle;rounded=0;orthogonalLoop=1;jettySize=auto;html=1;exitX=0.5;exitY=1;exitDx=0;exitDy=0;entryX=0;entryY=0.5;entryDx=0;entryDy=0;" parent="1" source="5BfrKKxsxFt3a2AqlH3C-55" target="5BfrKKxsxFt3a2AqlH3C-28" edge="1">
          <mxGeometry relative="1" as="geometry" />
        </mxCell>
        <mxCell id="5BfrKKxsxFt3a2AqlH3C-60" style="edgeStyle=orthogonalEdgeStyle;rounded=0;orthogonalLoop=1;jettySize=auto;html=1;exitX=0.5;exitY=0;exitDx=0;exitDy=0;entryX=0;entryY=0.5;entryDx=0;entryDy=0;" parent="1" source="5BfrKKxsxFt3a2AqlH3C-55" target="i8OTpNdrbQR1cZ3azr5K-1" edge="1">
          <mxGeometry relative="1" as="geometry" />
        </mxCell>
        <mxCell id="5BfrKKxsxFt3a2AqlH3C-55" value="" style="rhombus;whiteSpace=wrap;html=1;" parent="1" vertex="1">
          <mxGeometry x="720" y="1253" width="54" height="50" as="geometry" />
        </mxCell>
        <mxCell id="5BfrKKxsxFt3a2AqlH3C-56" style="edgeStyle=orthogonalEdgeStyle;rounded=0;orthogonalLoop=1;jettySize=auto;html=1;exitX=0;exitY=1;exitDx=0;exitDy=0;entryX=1;entryY=1;entryDx=0;entryDy=0;" parent="1" source="5BfrKKxsxFt3a2AqlH3C-21" target="5BfrKKxsxFt3a2AqlH3C-21" edge="1">
          <mxGeometry relative="1" as="geometry">
            <Array as="points">
              <mxPoint x="498" y="1338" />
              <mxPoint x="582" y="1338" />
            </Array>
          </mxGeometry>
        </mxCell>
        <mxCell id="5BfrKKxsxFt3a2AqlH3C-58" value="ready = 0" style="text;html=1;strokeColor=none;fillColor=none;align=center;verticalAlign=middle;whiteSpace=wrap;rounded=0;" parent="1" vertex="1">
          <mxGeometry x="60" y="340" width="60" height="30" as="geometry" />
        </mxCell>
        <mxCell id="5BfrKKxsxFt3a2AqlH3C-62" value="" style="rhombus;whiteSpace=wrap;html=1;" parent="1" vertex="1">
          <mxGeometry x="312" y="1550" width="54" height="50" as="geometry" />
        </mxCell>
        <mxCell id="5BfrKKxsxFt3a2AqlH3C-63" value="" style="endArrow=classic;html=1;rounded=0;entryX=0;entryY=0.5;entryDx=0;entryDy=0;" parent="1" target="5BfrKKxsxFt3a2AqlH3C-62" edge="1">
          <mxGeometry width="50" height="50" relative="1" as="geometry">
            <mxPoint x="200" y="1575" as="sourcePoint" />
            <mxPoint x="940" y="1320" as="targetPoint" />
          </mxGeometry>
        </mxCell>
        <mxCell id="5BfrKKxsxFt3a2AqlH3C-64" value="IR(15:14) = &quot;10&quot;" style="text;whiteSpace=wrap;html=1;" parent="1" vertex="1">
          <mxGeometry x="210" y="1545" width="90" height="30" as="geometry" />
        </mxCell>
        <mxCell id="5BfrKKxsxFt3a2AqlH3C-65" value="&lt;div&gt;JMP&lt;/div&gt;&lt;div&gt;&lt;br&gt;&lt;/div&gt;&lt;div&gt;c_pc_load &amp;lt;= 1&lt;br&gt;&lt;/div&gt;" style="ellipse;whiteSpace=wrap;html=1;" parent="1" vertex="1">
          <mxGeometry x="480" y="1535" width="120" height="80" as="geometry" />
        </mxCell>
        <mxCell id="5BfrKKxsxFt3a2AqlH3C-66" value="&lt;div&gt;JZ&lt;/div&gt;&lt;div&gt;&lt;br&gt;&lt;/div&gt;&lt;div&gt;c_pc_load &amp;lt;= 1&lt;/div&gt;" style="ellipse;whiteSpace=wrap;html=1;" parent="1" vertex="1">
          <mxGeometry x="750" y="1680" width="120" height="80" as="geometry" />
        </mxCell>
        <mxCell id="5BfrKKxsxFt3a2AqlH3C-67" value="&lt;div&gt;JNZ&lt;/div&gt;&lt;div&gt;&lt;br&gt;&lt;/div&gt;&lt;div&gt;c_pc_load &amp;lt;= 1&lt;/div&gt;" style="ellipse;whiteSpace=wrap;html=1;" parent="1" vertex="1">
          <mxGeometry x="750" y="1870" width="120" height="80" as="geometry" />
        </mxCell>
        <mxCell id="5BfrKKxsxFt3a2AqlH3C-68" value="" style="endArrow=classic;html=1;rounded=0;entryX=0;entryY=0.5;entryDx=0;entryDy=0;exitX=1;exitY=0.5;exitDx=0;exitDy=0;" parent="1" source="5BfrKKxsxFt3a2AqlH3C-62" target="5BfrKKxsxFt3a2AqlH3C-65" edge="1">
          <mxGeometry width="50" height="50" relative="1" as="geometry">
            <mxPoint x="890" y="1710" as="sourcePoint" />
            <mxPoint x="940" y="1660" as="targetPoint" />
          </mxGeometry>
        </mxCell>
        <mxCell id="5BfrKKxsxFt3a2AqlH3C-69" value="" style="endArrow=none;html=1;rounded=0;entryX=0.5;entryY=1;entryDx=0;entryDy=0;" parent="1" target="5BfrKKxsxFt3a2AqlH3C-62" edge="1">
          <mxGeometry width="50" height="50" relative="1" as="geometry">
            <mxPoint x="340" y="2000" as="sourcePoint" />
            <mxPoint x="940" y="1660" as="targetPoint" />
          </mxGeometry>
        </mxCell>
        <mxCell id="5BfrKKxsxFt3a2AqlH3C-70" value="" style="endArrow=classic;html=1;rounded=0;entryX=0;entryY=0.5;entryDx=0;entryDy=0;" parent="1" target="5BfrKKxsxFt3a2AqlH3C-85" edge="1">
          <mxGeometry width="50" height="50" relative="1" as="geometry">
            <mxPoint x="340" y="1720" as="sourcePoint" />
            <mxPoint x="940" y="1660" as="targetPoint" />
          </mxGeometry>
        </mxCell>
        <mxCell id="5BfrKKxsxFt3a2AqlH3C-71" value="" style="endArrow=classic;html=1;rounded=0;entryX=0;entryY=0.5;entryDx=0;entryDy=0;" parent="1" target="5BfrKKxsxFt3a2AqlH3C-92" edge="1">
          <mxGeometry width="50" height="50" relative="1" as="geometry">
            <mxPoint x="340" y="1910" as="sourcePoint" />
            <mxPoint x="940" y="1710" as="targetPoint" />
          </mxGeometry>
        </mxCell>
        <mxCell id="5BfrKKxsxFt3a2AqlH3C-73" value="" style="endArrow=classic;html=1;rounded=0;entryX=0.5;entryY=0;entryDx=0;entryDy=0;" parent="1" target="LXsYwTm4LhWMBuhHV1Q5-5" edge="1">
          <mxGeometry width="50" height="50" relative="1" as="geometry">
            <mxPoint x="420" y="2000" as="sourcePoint" />
            <mxPoint x="940" y="1710" as="targetPoint" />
          </mxGeometry>
        </mxCell>
        <mxCell id="5BfrKKxsxFt3a2AqlH3C-74" value="" style="endArrow=none;html=1;rounded=0;" parent="1" edge="1">
          <mxGeometry width="50" height="50" relative="1" as="geometry">
            <mxPoint x="340" y="2000" as="sourcePoint" />
            <mxPoint x="420" y="2000" as="targetPoint" />
          </mxGeometry>
        </mxCell>
        <mxCell id="5BfrKKxsxFt3a2AqlH3C-77" value="&lt;div align=&quot;left&quot;&gt;IR(12:11) = &quot;00&quot;&lt;/div&gt;" style="text;html=1;strokeColor=none;fillColor=none;align=left;verticalAlign=middle;whiteSpace=wrap;rounded=0;" parent="1" vertex="1">
          <mxGeometry x="373" y="1550" width="94" height="20" as="geometry" />
        </mxCell>
        <mxCell id="5BfrKKxsxFt3a2AqlH3C-78" value="&lt;div align=&quot;left&quot;&gt;IR(12:11) = &quot;10&quot;&lt;/div&gt;" style="text;html=1;strokeColor=none;fillColor=none;align=left;verticalAlign=middle;whiteSpace=wrap;rounded=0;" parent="1" vertex="1">
          <mxGeometry x="366" y="1700" width="94" height="20" as="geometry" />
        </mxCell>
        <mxCell id="5BfrKKxsxFt3a2AqlH3C-80" value="&lt;div align=&quot;left&quot;&gt;IR(12:11) = &quot;11&quot;&lt;/div&gt;" style="text;html=1;strokeColor=none;fillColor=none;align=left;verticalAlign=middle;whiteSpace=wrap;rounded=0;" parent="1" vertex="1">
          <mxGeometry x="366" y="1890" width="94" height="20" as="geometry" />
        </mxCell>
        <mxCell id="5BfrKKxsxFt3a2AqlH3C-81" value="" style="endArrow=none;html=1;rounded=0;" parent="1" edge="1">
          <mxGeometry width="50" height="50" relative="1" as="geometry">
            <mxPoint x="1560" y="1990" as="sourcePoint" />
            <mxPoint x="1560" y="240" as="targetPoint" />
          </mxGeometry>
        </mxCell>
        <mxCell id="5BfrKKxsxFt3a2AqlH3C-82" value="" style="endArrow=none;html=1;rounded=0;exitX=1;exitY=0.5;exitDx=0;exitDy=0;" parent="1" source="5BfrKKxsxFt3a2AqlH3C-65" edge="1">
          <mxGeometry width="50" height="50" relative="1" as="geometry">
            <mxPoint x="880" y="1690" as="sourcePoint" />
            <mxPoint x="1560" y="1575" as="targetPoint" />
          </mxGeometry>
        </mxCell>
        <mxCell id="5BfrKKxsxFt3a2AqlH3C-83" value="" style="endArrow=none;html=1;rounded=0;exitX=1;exitY=0.5;exitDx=0;exitDy=0;" parent="1" source="5BfrKKxsxFt3a2AqlH3C-66" edge="1">
          <mxGeometry width="50" height="50" relative="1" as="geometry">
            <mxPoint x="880" y="1690" as="sourcePoint" />
            <mxPoint x="1560" y="1720" as="targetPoint" />
          </mxGeometry>
        </mxCell>
        <mxCell id="5BfrKKxsxFt3a2AqlH3C-84" value="" style="endArrow=none;html=1;rounded=0;exitX=1;exitY=0.5;exitDx=0;exitDy=0;" parent="1" source="5BfrKKxsxFt3a2AqlH3C-67" edge="1">
          <mxGeometry width="50" height="50" relative="1" as="geometry">
            <mxPoint x="880" y="1880" as="sourcePoint" />
            <mxPoint x="1560" y="1910" as="targetPoint" />
          </mxGeometry>
        </mxCell>
        <mxCell id="5BfrKKxsxFt3a2AqlH3C-85" value="" style="rhombus;whiteSpace=wrap;html=1;" parent="1" vertex="1">
          <mxGeometry x="513" y="1695" width="54" height="50" as="geometry" />
        </mxCell>
        <mxCell id="5BfrKKxsxFt3a2AqlH3C-86" value="" style="endArrow=classic;html=1;rounded=0;exitX=1;exitY=0.5;exitDx=0;exitDy=0;" parent="1" source="5BfrKKxsxFt3a2AqlH3C-85" target="5BfrKKxsxFt3a2AqlH3C-66" edge="1">
          <mxGeometry width="50" height="50" relative="1" as="geometry">
            <mxPoint x="880" y="1580" as="sourcePoint" />
            <mxPoint x="930" y="1530" as="targetPoint" />
          </mxGeometry>
        </mxCell>
        <mxCell id="5BfrKKxsxFt3a2AqlH3C-87" value="zero = 1" style="text;html=1;strokeColor=none;fillColor=none;align=left;verticalAlign=middle;whiteSpace=wrap;rounded=0;" parent="1" vertex="1">
          <mxGeometry x="630" y="1700" width="50" height="20" as="geometry" />
        </mxCell>
        <mxCell id="5BfrKKxsxFt3a2AqlH3C-88" value="" style="endArrow=none;html=1;rounded=0;" parent="1" edge="1">
          <mxGeometry width="50" height="50" relative="1" as="geometry">
            <mxPoint x="540" y="1800" as="sourcePoint" />
            <mxPoint x="1560" y="1800" as="targetPoint" />
          </mxGeometry>
        </mxCell>
        <mxCell id="5BfrKKxsxFt3a2AqlH3C-89" value="" style="endArrow=none;html=1;rounded=0;entryX=0.5;entryY=1;entryDx=0;entryDy=0;" parent="1" target="5BfrKKxsxFt3a2AqlH3C-85" edge="1">
          <mxGeometry width="50" height="50" relative="1" as="geometry">
            <mxPoint x="540" y="1800" as="sourcePoint" />
            <mxPoint x="930" y="1530" as="targetPoint" />
          </mxGeometry>
        </mxCell>
        <mxCell id="5BfrKKxsxFt3a2AqlH3C-90" value="zero = 0" style="text;html=1;strokeColor=none;fillColor=none;align=left;verticalAlign=middle;whiteSpace=wrap;rounded=0;" parent="1" vertex="1">
          <mxGeometry x="630" y="1780" width="50" height="20" as="geometry" />
        </mxCell>
        <mxCell id="5BfrKKxsxFt3a2AqlH3C-93" style="edgeStyle=orthogonalEdgeStyle;rounded=0;orthogonalLoop=1;jettySize=auto;html=1;exitX=1;exitY=0.5;exitDx=0;exitDy=0;entryX=0;entryY=0.5;entryDx=0;entryDy=0;" parent="1" source="5BfrKKxsxFt3a2AqlH3C-92" target="5BfrKKxsxFt3a2AqlH3C-67" edge="1">
          <mxGeometry relative="1" as="geometry" />
        </mxCell>
        <mxCell id="5BfrKKxsxFt3a2AqlH3C-92" value="" style="rhombus;whiteSpace=wrap;html=1;" parent="1" vertex="1">
          <mxGeometry x="513" y="1885" width="54" height="50" as="geometry" />
        </mxCell>
        <mxCell id="5BfrKKxsxFt3a2AqlH3C-94" value="zero = 0" style="text;html=1;strokeColor=none;fillColor=none;align=left;verticalAlign=middle;whiteSpace=wrap;rounded=0;" parent="1" vertex="1">
          <mxGeometry x="630" y="1885" width="50" height="20" as="geometry" />
        </mxCell>
        <mxCell id="5BfrKKxsxFt3a2AqlH3C-96" value="" style="endArrow=none;html=1;rounded=0;entryX=0.5;entryY=1;entryDx=0;entryDy=0;" parent="1" edge="1">
          <mxGeometry width="50" height="50" relative="1" as="geometry">
            <mxPoint x="539.5" y="1990" as="sourcePoint" />
            <mxPoint x="539.5" y="1935" as="targetPoint" />
          </mxGeometry>
        </mxCell>
        <mxCell id="5BfrKKxsxFt3a2AqlH3C-97" value="" style="endArrow=none;html=1;rounded=0;" parent="1" edge="1">
          <mxGeometry width="50" height="50" relative="1" as="geometry">
            <mxPoint x="540" y="1990" as="sourcePoint" />
            <mxPoint x="1560" y="1990" as="targetPoint" />
          </mxGeometry>
        </mxCell>
        <mxCell id="5BfrKKxsxFt3a2AqlH3C-98" value="zero = 1" style="text;html=1;strokeColor=none;fillColor=none;align=left;verticalAlign=middle;whiteSpace=wrap;rounded=0;" parent="1" vertex="1">
          <mxGeometry x="630" y="1970" width="50" height="20" as="geometry" />
        </mxCell>
        <mxCell id="5BfrKKxsxFt3a2AqlH3C-99" value="&lt;div align=&quot;left&quot;&gt;IR(12:11) = &quot;01&quot;&lt;/div&gt;" style="text;html=1;strokeColor=none;fillColor=none;align=left;verticalAlign=middle;whiteSpace=wrap;rounded=0;" parent="1" vertex="1">
          <mxGeometry x="364" y="1970" width="94" height="20" as="geometry" />
        </mxCell>
      </root>
    </mxGraphModel>
  </diagram>
</mxfile>
